<?xml version="1.0" encoding="iso-8859-1"?>
<!-- Generator: Adobe Illustrator 16.0.0, SVG Export Plug-In . SVG Version: 6.00 Build 0)  -->
<!DOCTYPE svg PUBLIC "-//W3C//DTD SVG 1.1//EN" "http://www.w3.org/Graphics/SVG/1.1/DTD/svg11.dtd">
<svg version="1.1" id="Capa_1" xmlns="http://www.w3.org/2000/svg" xmlns:xlink="http://www.w3.org/1999/xlink" x="0px" y="0px"
	 width="468.59px" height="468.59px" viewBox="0 0 468.59 468.59" style="enable-background:new 0 0 468.59 468.59;"
	 xml:space="preserve">
<g>
	<path fill="#74ebd5" d="M84.92,457.062c0.508,6.508,5.936,11.528,12.462,11.528h273.827c6.527,0,11.955-5.021,12.462-11.528l34.587-443.59
		c0.271-3.474-0.92-6.902-3.287-9.46C412.604,1.454,409.279,0,405.795,0h-343c-3.484,0-6.81,1.454-9.176,4.012
		c-2.366,2.558-3.557,5.986-3.287,9.46L84.92,457.062z M359.646,443.59h-250.7L90.857,211.603
		c7.596,3.911,18.202,8.226,31.587,10.927c25.779,5.201,67.821,5.401,121.709-23.192c37.103-19.686,71.658-25.223,102.71-16.451
		c15.63,4.414,26.468,11.56,31.88,15.757L359.646,443.59z M392.283,25l-11.321,145.199c-6.857-3.894-15.451-7.867-25.692-10.906
		c-26.033-7.726-68.479-10.881-122.833,17.96c-36.856,19.556-72.782,27.475-103.534,21.064
		c-23.044-4.804-38.933-16.251-40.412-17.077L76.309,25H392.283z"/>
</g>
<g>
</g>
<g>
</g>
<g>
</g>
<g>
</g>
<g>
</g>
<g>
</g>
<g>
</g>
<g>
</g>
<g>
</g>
<g>
</g>
<g>
</g>
<g>
</g>
<g>
</g>
<g>
</g>
<g>
</g>
</svg>
