<svg xmlns="http://www.w3.org/2000/svg" width="508.044" height="508.044"><path d="M507.93 155.673c0-.055.006-.11.006-.165 0-66.793-54.145-120.938-120.938-120.938S266.061 88.714 266.061 155.508c0 66.794 54.15 120.938 120.938 120.938 13.727 0 26.867-2.393 39.162-6.609-27.209 156.09-148.93 256.752-36.096 173.905C515.182 351.874 508.07 159.198 507.93 155.673zM120.938 276.445c13.727 0 26.867-2.393 39.168-6.609-27.216 156.09-148.937 256.752-36.102 173.905 125.117-91.867 118.006-284.543 117.865-288.068 0-.055.006-.11.006-.165 0-66.793-54.144-120.938-120.937-120.938C54.144 34.57 0 88.714 0 155.508c0 66.794 54.15 120.937 120.938 120.937z"/></svg>